<svg xmlns="http://www.w3.org/2000/svg" width="890.913" height="903" viewBox="0 0 890.913 903">
  <defs>
    <style>
      .cls-1 {
        fill: #ff4f40;
      }

      .cls-2 {
        fill: #c92c28;
      }

      .cls-3 {
        fill: #ffd1ce;
      }

      .cls-4 {
        fill: #282c31;
      }

      .cls-5 {
        fill: #444b54;
      }

      .cls-6 {
        fill: #0a3;
      }
    </style>
  </defs>
  <g id="그룹_9" data-name="그룹 9" transform="translate(-439.264 262.035)">
    <g id="그룹_2" data-name="그룹 2" transform="translate(439.264 -262.035)">
      <g id="그룹_1" data-name="그룹 1" transform="translate(0 0)">
        <path id="패스_1" data-name="패스 1" class="cls-1" d="M781.259,651.378c82.307-67.567,117.6-155.4,115.267-260.872-2.33-88.166-66.853-242.839-194.54-298.375l29.207,39.614-8.17-4.42C642.27,77.887,557.633,26.8,469.115,26.8c-119.293,0-251.827,26.654-344.363,106.745C32.863,213.068-3.088,325.656,7.52,431.975c18.635,183.748,229.428,339.7,441.406,341.353Z" transform="translate(-5.721 128.848)"/>
        <path id="패스_3" data-name="패스 3" class="cls-2" d="M83.694,256.633c-13.2,0-23.294-10.711-23.294-24.719s10.094-24.719,23.294-24.719a468.957,468.957,0,0,0,76.871-6.592c75.318-14.008,158.261-46.643,246.86-98.549,43-23.207,14.036,23.567,3.942,31.807C341.485,190.714,250.637,234.386,168.33,249.217A476.368,476.368,0,0,1,83.694,256.633Z" transform="translate(364.17 646.367)"/>
        <path id="패스_5" data-name="패스 5" class="cls-3" d="M38.873,201.1a25.086,25.086,0,0,1-13.2-4.12c-10.871-7.416-13.2-23.071-6.212-34.607,27.177-41.2,64.448-80.75,108.707-113.71,10.871-8.24,24.847-4.944,32.612,5.768,7.765,11.536,4.659,26.367-5.435,34.607-39.6,29.663-73.765,65.095-97.06,101.35A22.885,22.885,0,0,1,38.873,201.1Z" transform="translate(60.352 226.927)"/>
        <ellipse id="타원_1" data-name="타원 1" class="cls-4" cx="23.294" cy="24.719" rx="23.294" ry="24.719" transform="translate(318.101 454.754)"/>
        <ellipse id="타원_2" data-name="타원 2" class="cls-4" cx="23.294" cy="24.719" rx="23.294" ry="24.719" transform="translate(535.874 454.754)"/>
        <path id="패스_7" data-name="패스 7" class="cls-2" d="M65.012,112.731c-45.812,42.847,4.875,87.04,29.722,115.056,30.283,34.607,114.7,43.149,160.515-35.129,5.435-8.24,37.271-64.271,17.082-93.934C249.037,64.94,115.483,64.94,65.012,112.731Z" transform="translate(280.205 444.577)"/>
        <ellipse id="타원_3" data-name="타원 3" class="cls-3" cx="23.294" cy="24.719" rx="23.294" ry="24.719" transform="translate(52.547 504.193)"/>
        <path id="패스_9" data-name="패스 9" class="cls-5" d="M46.053,0C33.188,0,0,49.153,0,62.805S69.348,38.372,69.348,24.719,58.918,0,46.053,0Z" transform="translate(524.494 362.311)"/>
        <path id="패스_10" data-name="패스 10" class="cls-2" d="M145.337,135.088C51.395,143.85,4.086,165.119.1,131.329-3.092,102.484,69.708,35.985,155.892,29.67c36.491-3.179,82.34,6.854,82.34,6.854,9.146-57.64,22.089,1.976,69.445-3.639,48.906-6.434-5.974-66.184-.359-6.85,0,0,46.067-11.389,91.316,57.135,20.286,31.371-1.123-21.421-1.123-21.421s163.115,9.584,146.958,59.787c-15.378,51.029-158.314,37.391-214.327,5.082,0,0,34.511,112.977-26.811,122.667-60.543,10.516-56.3-126.228-56.3-126.228S169.9,297.464,109.191,252.782C65.6,218.865,145.337,135.088,145.337,135.088Z" transform="translate(192.728 110.216) rotate(3)"/>
        <path id="패스_6" data-name="패스 6" class="cls-6" d="M145.337,204.858C51.395,213.62,4.086,234.888.1,201.1c-3.193-28.845,69.607-95.343,155.79-101.659,36.491-3.179,82.34,6.854,82.34,6.854,9.146-57.64-7.357-100.031,40-105.646C327.137-5.787,301.7,36.47,307.318,95.8c0,0,140.216-115.714,185.465-47.19,20.286,31.371-95.272,82.9-95.272,82.9S560.626,141.1,544.469,191.3c-15.378,51.029-158.314,37.391-214.327,5.082,0,0,34.511,112.977-26.811,122.667-60.543,10.516-56.3-126.228-56.3-126.228S169.9,367.233,109.191,322.552C65.6,288.635,145.337,204.858,145.337,204.858Z" transform="translate(196.379 0) rotate(3)"/>
        <path id="패스_8" data-name="패스 8" class="cls-5" d="M23.294,0C36.159,0,69.348,49.153,69.348,62.805S0,38.372,0,24.719,10.429,0,23.294,0Z" transform="translate(306.721 366.172)"/>
      </g>
    </g>
  </g>
</svg>
