<?xml version="1.0" encoding="UTF-8"?><svg xmlns="http://www.w3.org/2000/svg" viewBox="0 0 890.91 888.04"><defs><style>.r{fill:#444b54;}.s{fill:#0a3;}.t{fill:#c92c28;}.u{fill:#ff4f40;}.v{fill:#282c31;}.w{fill:#ffd1ce;}</style></defs><g id="a"/><g id="b"><g id="c"><g id="d" transform="translate(-439.264 262.035)"><g id="e" transform="translate(439.264 -262.035)"><g id="f" transform="translate(0 0)"><path id="g" class="u" d="M775.54,765.27c82.31-67.57,117.6-155.4,115.27-260.87-2.33-88.17-66.85-242.84-194.54-298.38l29.21,39.61-8.17-4.42c-80.75-49.44-165.39-100.52-253.91-100.52-119.29,0-251.83,26.65-344.36,106.74C27.14,326.96-8.81,439.55,1.8,545.87c18.64,183.75,229.43,339.7,441.41,341.35l332.33-121.95Z"/><path id="h" class="t" d="M447.86,888.04c-13.2,0-23.29-10.71-23.29-24.72s10.09-24.72,23.29-24.72c25.76-.08,51.47-2.29,76.87-6.59,75.32-14.01,158.26-46.64,246.86-98.55,43-23.21,14.04,23.57,3.94,31.81-69.88,56.85-160.73,100.52-243.04,115.36-27.93,4.99-56.26,7.47-84.64,7.42Z"/><path id="i" class="w" d="M99.23,413.07c-4.7-.11-9.27-1.54-13.2-4.12-10.87-7.42-13.2-23.07-6.21-34.61,27.18-41.2,64.45-80.75,108.71-113.71,10.87-8.24,24.85-4.94,32.61,5.77,7.76,11.54,4.66,26.37-5.43,34.61-39.6,29.66-73.76,65.1-97.06,101.35-4.19,6.68-11.53,10.72-19.41,10.71Z"/><ellipse id="j" class="v" cx="341.4" cy="464.52" rx="23.29" ry="24.72"/><ellipse id="k" class="v" cx="559.17" cy="464.52" rx="23.29" ry="24.72"/><path id="l" class="t" d="M345.22,542.35c-45.81,42.85,4.88,87.04,29.72,115.06,30.28,34.61,114.7,43.15,160.51-35.13,5.43-8.24,37.27-64.27,17.08-93.93-23.29-33.78-156.85-33.78-207.32,14.01Z"/><ellipse id="m" class="w" cx="75.84" cy="513.96" rx="23.29" ry="24.72"/><path id="n" class="r" d="M570.55,347.35c-12.87,0-46.05,49.15-46.05,62.81s69.35-24.43,69.35-38.09-10.43-24.72-23.29-24.72Z"/><path id="o" class="t" d="M330.8,237.77c-94.27,3.83-142.63,22.6-144.84-11.35-1.68-28.97,74.5-91.57,160.9-93.37,36.61-1.26,81.87,11.15,81.87,11.15,12.15-57.08,21.96,3.13,69.54,0,49.18-3.87-2.5-66.41,0-6.86,0,0,46.6-8.96,88.2,61.84,18.62,32.39,0-21.45,0-21.45,0,0,162.39,18.11,143.63,67.4-18.03,50.15-160.05,29.05-214.3-6.14,0,0,28.55,114.63-33.19,121.1-61.01,7.33-49.62-129-49.62-129,0,0-86.15,170.13-144.44,122.33-41.76-36.15,42.26-115.64,42.26-115.64Z"/><path id="p" class="s" d="M330.8,197.23c-94.27,3.83-142.63,22.6-144.84-11.35-1.68-28.97,74.5-91.57,160.9-93.37,36.61-1.26,81.87,11.15,81.87,11.15,12.15-57.08-2.11-100.28,45.47-103.41,49.18-3.87,21.56,37,24.07,96.54,0,0,146.08-108.22,187.68-37.42,18.62,32.39-99.48,77.8-99.48,77.8,0,0,162.39,18.11,143.63,67.4-18.03,50.15-160.05,29.05-214.3-6.14,0,0,28.55,114.63-33.19,121.1-61.01,7.33-49.62-129-49.62-129,0,0-86.15,170.14-144.44,122.34-41.76-36.15,42.26-115.64,42.26-115.64Z"/><path id="q" class="r" d="M330.02,351.22c12.86,0,46.05,49.15,46.05,62.81s-69.35-24.43-69.35-38.09,10.43-24.72,23.29-24.72Z"/></g></g></g></g></g></svg>